HIERARCHY
ROOT Hips
{
	OFFSET -14.64140 90.27770 -84.91600
	CHANNELS 6 Xposition Yposition Zposition Zrotation Xrotation Yrotation
	JOINT Spine
	{
		OFFSET 0.00000 13.20850 -1.60436
		CHANNELS 3 Zrotation Xrotation Yrotation
		JOINT Spine1
		{
			OFFSET 0.00000 8.61716 0.00000
			CHANNELS 3 Zrotation Xrotation Yrotation
			JOINT Spine2
			{
				OFFSET 0.00000 8.61717 0.00000
				CHANNELS 3 Zrotation Xrotation Yrotation
				JOINT Spine3
				{
					OFFSET 0.00000 8.61717 0.00000
					CHANNELS 3 Zrotation Xrotation Yrotation
					JOINT Neck
					{
						OFFSET 0.00000 11.07920 1.10792
						CHANNELS 3 Zrotation Xrotation Yrotation
						JOINT Neck1
						{
							OFFSET 0.00000 7.08032 0.00000
							CHANNELS 3 Zrotation Xrotation Yrotation
							JOINT Head
							{
								OFFSET 0.00000 7.08031 0.00000
								CHANNELS 3 Zrotation Xrotation Yrotation
								End site
								{
									OFFSET 0.00000 0.00000 0.00000
								}
							}
						}
					}
					JOINT RightShoulder
					{
						OFFSET -0.01000 7.91373 5.19711
						CHANNELS 3 Zrotation Xrotation Yrotation
						JOINT RightArm
						{
							OFFSET -18.41580 0.00000 0.00000
							CHANNELS 3 Zrotation Xrotation Yrotation
							JOINT RightForeArm
							{
								OFFSET -29.11090 0.00000 0.00000
								CHANNELS 3 Zrotation Xrotation Yrotation
								JOINT RightHand
								{
									OFFSET -24.65040 0.00000 0.00000
									CHANNELS 3 Zrotation Xrotation Yrotation
									JOINT RightHandThumb1
									{
										OFFSET -5.35114 -0.85590 3.97906
										CHANNELS 3 Zrotation Xrotation Yrotation
										JOINT RightHandThumb2
										{
											OFFSET -4.52789 0.00000 0.00000
											CHANNELS 3 Zrotation Xrotation Yrotation
											JOINT RightHandThumb3
											{
												OFFSET -2.46976 0.00000 0.00000
												CHANNELS 3 Zrotation Xrotation Yrotation
												End site
												{
													OFFSET 0.00000 0.00000 0.00000
												}
											}
										}
									}
									JOINT RightHandIndex1
									{
										OFFSET -14.26970 0.00000 2.88139
										CHANNELS 3 Zrotation Xrotation Yrotation
										JOINT RightHandIndex2
										{
											OFFSET -5.48836 0.00000 0.00000
											CHANNELS 3 Zrotation Xrotation Yrotation
											JOINT RightHandIndex3
											{
												OFFSET -3.01859 0.00000 0.00000
												CHANNELS 3 Zrotation Xrotation Yrotation
												End site
												{
													OFFSET 0.00000 0.00000 0.00000
												}
											}
										}
									}
									JOINT RightHandMiddle1
									{
										OFFSET -14.26970 0.00000 -0.09147
										CHANNELS 3 Zrotation Xrotation Yrotation
										JOINT RightHandMiddle2
										{
											OFFSET -6.17441 0.00000 0.00000
											CHANNELS 3 Zrotation Xrotation Yrotation
											JOINT RightHandMiddle3
											{
												OFFSET -3.56743 0.00000 0.00000
												CHANNELS 3 Zrotation Xrotation Yrotation
												End site
												{
													OFFSET 0.00000 0.00000 0.00000
												}
											}
										}
									}
									JOINT RightHandRing1
									{
										OFFSET -12.69180 0.00000 -3.06433
										CHANNELS 3 Zrotation Xrotation Yrotation
										JOINT RightHandRing2
										{
											OFFSET -5.62556 0.00000 0.00000
											CHANNELS 3 Zrotation Xrotation Yrotation
											JOINT RightHandRing3
											{
												OFFSET -3.56744 0.00000 0.00000
												CHANNELS 3 Zrotation Xrotation Yrotation
												End site
												{
													OFFSET 0.00000 0.00000 0.00000
												}
											}
										}
									}
									JOINT RightHandPinky1
									{
										OFFSET -11.11390 0.00000 -6.03719
										CHANNELS 3 Zrotation Xrotation Yrotation
										JOINT RightHandPinky2
										{
											OFFSET -4.52789 0.00000 0.00000
											CHANNELS 3 Zrotation Xrotation Yrotation
											JOINT RightHandPinky3
											{
												OFFSET -2.46976 0.00000 0.00000
												CHANNELS 3 Zrotation Xrotation Yrotation
												End site
												{
													OFFSET 0.00000 0.00000 0.00000
												}
											}
										}
									}
								}
							}
						}
					}
					JOINT LeftShoulder
					{
						OFFSET 0.01000 7.91373 5.19711
						CHANNELS 3 Zrotation Xrotation Yrotation
						JOINT LeftArm
						{
							OFFSET 18.41580 0.00000 0.00000
							CHANNELS 3 Zrotation Xrotation Yrotation
							JOINT LeftForeArm
							{
								OFFSET 29.11090 0.00000 0.00000
								CHANNELS 3 Zrotation Xrotation Yrotation
								JOINT LeftHand
								{
									OFFSET 24.65040 0.00000 0.00000
									CHANNELS 3 Zrotation Xrotation Yrotation
									JOINT LeftHandThumb1
									{
										OFFSET 5.35114 -0.85590 3.97906
										CHANNELS 3 Zrotation Xrotation Yrotation
										JOINT LeftHandThumb2
										{
											OFFSET 4.52789 0.00000 0.00000
											CHANNELS 3 Zrotation Xrotation Yrotation
											JOINT LeftHandThumb3
											{
												OFFSET 2.46977 0.00000 0.00000
												CHANNELS 3 Zrotation Xrotation Yrotation
												End site
												{
													OFFSET 0.00000 0.00000 0.00000
												}
											}
										}
									}
									JOINT LeftHandIndex1
									{
										OFFSET 14.26970 0.00000 2.88139
										CHANNELS 3 Zrotation Xrotation Yrotation
										JOINT LeftHandIndex2
										{
											OFFSET 5.48836 0.00000 0.00000
											CHANNELS 3 Zrotation Xrotation Yrotation
											JOINT LeftHandIndex3
											{
												OFFSET 3.01859 0.00000 0.00000
												CHANNELS 3 Zrotation Xrotation Yrotation
												End site
												{
													OFFSET 0.00000 0.00000 0.00000
												}
											}
										}
									}
									JOINT LeftHandMiddle1
									{
										OFFSET 14.26970 0.00000 -0.09147
										CHANNELS 3 Zrotation Xrotation Yrotation
										JOINT LeftHandMiddle2
										{
											OFFSET 6.17440 0.00000 0.00000
											CHANNELS 3 Zrotation Xrotation Yrotation
											JOINT LeftHandMiddle3
											{
												OFFSET 3.56744 0.00000 0.00000
												CHANNELS 3 Zrotation Xrotation Yrotation
												End site
												{
													OFFSET 0.00000 0.00000 0.00000
												}
											}
										}
									}
									JOINT LeftHandRing1
									{
										OFFSET 12.69180 0.00000 -3.06433
										CHANNELS 3 Zrotation Xrotation Yrotation
										JOINT LeftHandRing2
										{
											OFFSET 5.62556 0.00000 0.00000
											CHANNELS 3 Zrotation Xrotation Yrotation
											JOINT LeftHandRing3
											{
												OFFSET 3.56744 0.00000 0.00000
												CHANNELS 3 Zrotation Xrotation Yrotation
												End site
												{
													OFFSET 0.00000 0.00000 0.00000
												}
											}
										}
									}
									JOINT LeftHandPinky1
									{
										OFFSET 11.11390 0.00000 -6.03719
										CHANNELS 3 Zrotation Xrotation Yrotation
										JOINT LeftHandPinky2
										{
											OFFSET 4.52789 0.00000 0.00000
											CHANNELS 3 Zrotation Xrotation Yrotation
											JOINT LeftHandPinky3
											{
												OFFSET 2.46976 0.00000 0.00000
												CHANNELS 3 Zrotation Xrotation Yrotation
												End site
												{
													OFFSET 0.00000 0.00000 0.00000
												}
											}
										}
									}
								}
							}
						}
					}
					JOINT pCube4
					{
						OFFSET 0.00000 10.91090 1.10792
						CHANNELS 3 Zrotation Xrotation Yrotation
						End site
						{
							OFFSET 0.00000 0.00000 0.00000
						}
					}
				}
			}
		}
	}
	JOINT RightUpLeg
	{
		OFFSET -9.98441 0.00000 0.00000
		CHANNELS 3 Zrotation Xrotation Yrotation
		JOINT RightLeg
		{
			OFFSET 0.00000 -42.11790 0.00000
			CHANNELS 3 Zrotation Xrotation Yrotation
			JOINT RightFoot
			{
				OFFSET 0.00000 -45.00020 -0.00001
				CHANNELS 3 Zrotation Xrotation Yrotation
				JOINT RightForeFoot
				{
					OFFSET 0.00000 -3.74820 0.00000
					CHANNELS 3 Zrotation Xrotation Yrotation
					JOINT RightToeBase
					{
						OFFSET 0.00000 0.06325 14.43120
						CHANNELS 3 Zrotation Xrotation Yrotation
						End site
						{
							OFFSET 0.00000 0.00000 0.00000
						}
					}
				}
			}
		}
	}
	JOINT LeftUpLeg
	{
		OFFSET 9.98441 0.00000 0.00000
		CHANNELS 3 Zrotation Xrotation Yrotation
		JOINT LeftLeg
		{
			OFFSET 0.00000 -42.11800 0.00000
			CHANNELS 3 Zrotation Xrotation Yrotation
			JOINT LeftFoot
			{
				OFFSET 0.00000 -45.00070 0.00000
				CHANNELS 3 Zrotation Xrotation Yrotation
				JOINT LeftForeFoot
				{
					OFFSET 0.00000 -3.74824 0.00000
					CHANNELS 3 Zrotation Xrotation Yrotation
					JOINT LeftToeBase
					{
						OFFSET 0.00000 0.06325 14.43110
						CHANNELS 3 Zrotation Xrotation Yrotation
						End site
						{
							OFFSET 0.00000 0.00000 0.00000
						}
					}
				}
			}
		}
	}
}
MOTION
Frames: 4
Frame Time: 0.050000
-0.02132846046679226 0.02273255126620098 -0.006869462133691169 0.03425947736951489 -0.0068723581364616955 0.03698118775171675 -2.8708871334450317 -0.16282626330123995 -0.9500274772883051 -0.2391950845110155 3.828630043366653 0.24156703163001678 -0.7430657266331634 -2.0590153791371066 -0.11112632453021477 -1.066616458563745 -1.1777894938272746 -0.5592214514329941 -0.2563748154974363 13.042472976650155 -0.18340441278035377 0.9746052392392878 -0.4727012806195632 -0.18217760388487222 1.2098139799870795 -15.266320127170934 -0.08451322286120833 -0.5447216754197504 0.5442172653070355 -13.175410531348838 63.189970713143786 -0.6494656977196576 23.665581858646355 34.043846315235776 7.6668938604223245 98.2490673276755 27.506996481261645 -0.027569054701867022 -7.676772707930946 4.51763957799434 -0.09344547627168712 -1.5943570138725929 -0.020290583103205976 -0.018290291517301834 -56.215859069670984 0.028494721386841844 0.0398391613405667 -56.26700087976839 -38.77734405020733 -0.04819836773757836 -0.04993675285506772 0.00886665800998751 -0.016832046431240814 0.007950507185788607 0.025532001396722803 -0.026226436616627033 -0.0033180581048969527 -36.690807226121365 0.0065144831754458486 -0.020052056337539658 -0.02760821662103887 -0.04438068426815571 0.01147050026553809 0.02637627666677478 -0.040993190981359715 0.015076001171931183 -19.726019839020154 -0.04058178774927064 -0.04519575759604902 -0.03590992656475076 -0.035533768536757854 -0.005242354947028092 -0.017612519409981688 0.028634490481921623 -0.04574145176828085 24.059487326641417 -0.017707600954620418 -0.04645884085025682 28.89949708534864 0.021508564125898296 0.0060606100131952115 28.86436417158192 -0.008886191890753454 0.03938691514884686 4.619551681880149 1.3428332096127458 12.236071688051194 -67.98625007706666 25.19695510104787 -26.928360217392825 -24.593213462456006 3.4523379023796434 -97.46088852411057 -28.431860745908846 2.428017882388905 -2.6729358215351304 -0.5089537553248057 0.05642571979071519 -8.155316437875989 -0.023820680529479707 -0.02098630654633925 44.57391312127792 0.04113357025052929 -0.012592489386819146 44.54655497135292 12.452424596454765 -0.01655468595213988 -0.02657315077547905 0.002594618485670855 0.01898008497110252 0.038334617732888134 0.028714947980077437 0.019899063829189472 0.00791163347500234 11.073615376428963 0.01949274559609174 0.002774055853532491 0.005735060065913209 0.0454628880524809 0.019460677836058718 0.008594193714004581 -0.03223235623483401 0.04440887257356058 4.736865312157479 -0.017402539302962053 -0.005408147496452979 0.011953379900345971 0.012945212787341355 -0.03772014256869109 -0.03722435493919332 -0.04012495327887247 -0.0038166796715817727 -5.555763454250813 -0.007294329890774561 0.028810101107581188 -6.742639385334996 -0.029833770827087994 -0.0249991976302604 -6.71468964961599 0.007512188469819701 0.008094670274094388 0.04999127569970579 0.03514432688016113 0.024948456840225106 8.087402430612746 3.4906976715962745 -19.257884815721326 0.04447411322592271 10.379147177501407 0.04101824112966937 -5.6627710361545365 -15.700487616462393 3.185668586011747 0.01601624303817121 -0.003486219577993867 -0.012949763568248408 0.03213900463257208 4.714218459724805 0.003246642274180749 12.433386962980157 -8.198239711842085 6.926837663149123 -0.0011120740035612555 46.35805512980096 -0.03487490024188392 -4.35243097244179 -14.741941045860317 -3.8015449889329855 0.004333612114209746 -0.03787988726824067 -0.03647460162260106 0.023461323896683275 -10.730064442452269 -0.03668096205657772 
0.035281020686377236 -0.016463304846861454 -0.021434526510383693 -0.01786692565577813 -0.047693150766954864 0.02378377434763405 -2.6284714848494932 -0.09000677956660703 -1.010248196441352 -0.1863625395987005 3.759664422210448 0.24805414355362992 -0.7177240248801305 -2.03551850993726 -0.12927297727477452 -1.0384910282562159 -1.2228823857203892 -0.6104577831226088 -0.2494782698978772 13.07567949775638 -0.1765411706037127 1.0674929290551936 -0.4402101860913629 -0.001189026953441731 1.1631557794199232 -15.185500537056546 -0.0874245509860421 -0.5034477996290854 0.5742573910897137 -13.387995734134215 64.23596323710323 -0.776400522790177 22.70588021816438 32.124720132671534 7.819361737044252 98.68650342293165 26.770234696117978 -0.04668213988684656 -7.112587157625686 4.512805333865721 -0.13766119358141798 -1.6085610615931512 0.04548643060613072 0.03819039828367952 -56.18798510118676 0.005400800596573053 0.014114556235093023 -56.21324474391967 -38.803368169860285 0.04963177971260864 -0.004550647124756287 -0.026547344653444747 -0.010776215915497317 0.001540877911223555 -0.02506301846060045 0.032413387379470346 0.031641915921077374 -36.70519638580765 -0.030654631083753867 -0.013012034862573551 0.008341859212793679 0.0297013323131377 0.04888032778703809 -0.03662045128334294 -0.03507749649644668 -0.045300626160841226 -19.72175012279647 -0.01478812860086719 -0.02407141673059723 0.03107173888676501 -0.009660721065986448 -0.015973315470964262 -0.022703557661794143 -0.035353410255532354 0.043493022561220125 24.01566643844531 -0.01319558395993468 0.03753092684543733 28.888681136939383 -0.009004006229162271 0.011447186738965175 28.87765606711351 -0.029085026094603606 0.014341219820098058 4.749132442950293 1.3348282817210657 12.326188861230763 -68.73384062177806 24.187421765776833 -27.03532401878786 -23.105886673183853 3.7528683335828803 -97.13209289392222 -27.679175102535634 3.3801731049141095 -3.4712480485459047 -0.5164232423738523 0.11591565577690519 -8.141202254265597 -0.04323558833175246 0.0303207078295003 44.54301625278908 -0.006214380508419116 0.043407908322752764 44.56621042629211 12.459038899926114 -0.006780704131231259 0.04504369062678549 0.025678155121027318 0.001178032664174423 -0.04994161913103271 -0.04764792642820355 -0.03834897538369593 -0.013667565407334895 11.11022368165512 0.02936313628966189 -0.033321040898638264 0.02962864134975209 0.04691590760278665 -0.015403051686660821 -0.028710355362792563 -0.004181909072818915 0.017500008968071603 4.782296098932884 0.010987102966447946 -0.03535509380398928 -0.0052108528911355995 0.028740340542955725 -0.003966280568877499 0.022317959654173568 -0.04652251415564008 0.0017747041657824915 -5.635176225768936 -0.02347856767766709 0.017552611833442474 -6.759242875374829 -0.030613314955927576 -0.023537847713932077 -6.681939264106845 0.04376313458439461 0.019161145981150103 0.03566599980434804 -0.004329973987025625 -0.002317054087816007 8.000567901058172 3.471704845606279 -19.26458063966788 0.010949500665351917 10.370866284596499 -0.0015040856619878522 -5.651758122732017 -15.709374118739222 3.188440158427909 -0.016577439356449772 -0.0038320126210487147 0.0018831178503559822 -0.048930514453206383 4.722310302532261 0.025453182977377326 12.466828897144262 -8.273236528201181 6.9146388290010155 0.037496709943718384 46.407769668474614 0.042329861764875944 -4.37497317993552 -14.71293762211191 -3.795714459006128 -0.046781956506550385 0.01570153184334406 0.04362447499629473 0.026878278323616157 -10.74601244627472 -0.01124399646004879 
-0.03605790778303882 0.040821923693096764 0.026433925661972987 -0.030623824284447012 0.019285156528650305 -0.03694170290611028 -2.224949479674951 -0.1433072650730478 -1.079553980778545 -0.17629008216500433 3.7739950413311902 0.2183309115521767 -0.6327429247756682 -2.0147938847346833 -0.11421247343460532 -1.0171086831921128 -1.152687692406822 -0.5791063337077721 -0.35848096406874164 13.189804812241142 -0.13019436279589325 1.0712681043676473 -0.4208110289903123 0.3183267847429111 1.1443065749711747 -15.132443585331401 -0.05227616955631433 -0.6346514521794332 0.633791676980691 -13.456036843187151 65.33464596045273 -0.2700800424507893 21.665020642217982 31.08513501004588 8.04125089899121 99.19216188260695 26.001569566545566 -0.14623602349889975 -6.731559770050498 4.552157359786443 -0.11244809730844421 -1.5919793392480963 0.03106681331382295 0.019728641875670992 -56.28164416038563 0.041449651819508875 0.041235913203568814 -56.20262362031415 -38.75956870850647 0.020602397104438386 -0.00023749075056713037 0.0017919947704272666 0.031620368763570134 0.0022191776633899386 -0.031291663482393386 0.012146666356038848 -0.010089625103401926 -36.666131935666854 -0.012304466882531654 -0.045972516004353974 0.02980148130406125 0.003986864410560291 0.03731926434631064 0.008602802356982762 0.03714863761981815 0.034861845700717244 -19.710521746705215 0.022196987622608248 0.012199949710461667 0.03496379426335662 0.037500636423108684 -0.04352325993412613 -0.03255275386892674 -0.031521229069739476 0.03652665697106554 24.01767176525818 -0.04783338866639299 0.00914512305213619 28.860165564293702 0.0048983676499628264 0.04540579194511953 28.854024229624184 -0.0041666772656623625 -0.002418096734988113 5.08216769741421 1.386540491067231 12.402279723250471 -69.64645902941763 22.855361654768167 -27.339369011110314 -23.528569288533685 4.517114347761668 -96.77489359302606 -26.863286891238896 4.325065776589023 -4.03686090065932 -0.46969435255956465 0.10234738821670689 -8.099036642866473 0.012295354601391436 0.04027211067214587 44.560511831717896 0.0018257928778610477 -0.03243030778166556 44.602819314148526 12.464786696694482 -0.02395584219989678 0.04268035031296809 0.022724238387441566 -0.022225670822233753 -0.02939560770997187 0.016887225504489397 -0.0024393808205952776 0.005351189883102114 11.065962129928003 0.0045942026925495155 -0.0211830612685167 -0.03344051835067616 0.025379078390364036 -0.017267853391178017 0.005343352869152936 -0.018029752147135297 0.015822363104045126 4.735774374002417 -0.004229228410474063 -0.002228713661419525 -0.016574489093051575 0.001338505929549092 0.014266359816892523 -0.019747143213701954 0.0004381247051953331 0.04849256108651688 -5.635211961892281 0.019271866392548853 0.0311919572608262 -6.6866697899720915 0.005119805677194997 -0.04786538423678617 -6.732832880173404 -0.0054006320438046715 0.00468494188691361 -0.02007327269116215 -0.03545112607388212 0.047922859338596475 8.052085813848564 3.5379179281124786 -19.196328148526195 0.01583839464741512 10.350311314121493 -0.002161204500716763 -5.596114008691327 -15.656359279425393 3.237108613420078 0.003065803515967547 0.008423296277549218 -0.010299260714183934 -0.04373026853467892 4.694681632510289 -0.019902461069054637 12.478796357500874 -8.253535915804296 6.931786128507589 -0.0011743488847470083 46.42263135213336 0.006702392380937599 -4.292735044380029 -14.780059350777075 -3.822664695827916 0.02912572268636899 0.006951214108487322 -0.006672674827489047 -0.0031520865712079877 -10.766609579699221 0.029762891005627685 
-0.009873259380273025 0.015840030227468587 0.030750686269590818 -0.023471418899992817 -0.006243803570173699 -0.010322584185372357 -1.895447438479877 -0.2221471955680411 -1.1146967180375866 -0.1623061939116508 3.792559808316774 0.2549378286338576 -0.6550199494205533 -2.0967189291067507 -0.19695268980257055 -0.9803898359619906 -1.2252128020562087 -0.5597831203759251 -0.3104572556571078 13.207413853196824 -0.0865256179791139 1.0491558790254567 -0.31629214756884605 0.513692736323658 1.1480297897800988 -15.06521005736258 -0.06006587091020197 -0.7761120224236572 0.7176529315798629 -13.559490164325073 66.2596531447826 0.3944586633516795 21.057972673302864 30.303513724603363 8.151226587026427 99.63805484881385 25.294157145904254 -0.12773559826912645 -6.3425532965701 4.492690002369414 -0.1311704971084509 -1.6275203596805508 0.011147468773092424 0.0077086788336627205 -56.249158691033195 0.024481301603260227 0.03840157929924644 -56.249411292041984 -38.76321424392322 -0.00924855151975408 0.009501797074673843 0.043594187993543136 0.031771885266803454 -0.04141088864047875 0.012976679153734525 -0.016423777760384714 -0.01737591780230528 -36.727917608569335 -0.0005150816323618232 0.03527143460567976 0.018889143572379676 -0.02010430913080237 0.03110490869604781 -0.015567315442639127 0.0444862561301703 -0.033877805751095585 -19.80057454351532 0.020025870984068057 -0.03305567123770273 -0.04861393274734277 0.026819653858829024 -0.014238184973693684 -0.04242914434796501 -0.047452937768637 0.031345265500980324 24.07075161636753 0.03866989169968693 0.028923970529276196 28.83877096138772 -0.01869115113407738 0.04430194033660652 28.843775511062212 -0.013793478194398093 0.00951316960057555 5.5851493078357 1.5049535790109665 12.50685489440556 -70.3468537111445 21.695593265921893 -27.92318851426921 -24.63719942146109 5.3422611977240475 -96.40134415567799 -26.20765932347159 4.712859156218341 -4.276608723816739 -0.44303747172478636 0.08436676304806175 -8.166286164906724 0.011766104995341843 0.019748444681406695 44.613819032374316 -0.03577947066345689 0.02144015673296262 44.554964373528755 12.463568642749204 -0.013761877357477146 0.013188082354297484 -0.010539322276771923 0.033100635406762155 0.03538868505360364 -0.0017396366641811113 0.027533418398014767 0.03107950918230679 11.149646736080248 0.019982420903456147 -0.020141914008706036 0.009506481684838374 0.049756260247042224 -0.03895701270288057 0.014361346416753719 -0.044556157961083746 -0.03811838786090049 4.782121204601367 -0.007107016310063359 -0.02815477858921941 -0.0011139868417266064 0.0010630295197449526 -0.014912344251699393 0.03544920322877118 -0.00904166894020514 -0.027705034660574782 -5.561045582423312 0.005484976884703846 0.000762925198738195 -6.752165901426245 0.01880567748536425 -0.0035481300633395333 -6.712491793776894 -0.02270979352411351 0.04571294112058159 0.0026210316205280714 0.008323774663463759 -0.008961385674890347 8.024373925024799 3.5214075481228653 -19.21922454108564 -0.026160619616050228 10.389198756044633 0.008938595518183049 -5.618340439961256 -15.632500841034156 3.1879744601720628 0.011237867635472298 0.040578558200338254 0.002407574382600073 -0.027461567128942953 4.6712241651870885 0.02235444344699148 12.47334786403466 -8.196080984084285 6.890658872020594 0.038872157848265 46.3878987006845 0.030629051243275928 -4.350801838758638 -14.79075444016279 -3.787518328674132 0.01225668313260879 0.017416690052559594 0.004417981486199606 0.045575906221949944 -10.770657688760354 -0.0431935378388098 
